<svg width="10" height="18" viewBox="0 0 10 18" fill="none" xmlns="http://www.w3.org/2000/svg">
<g clip-path="url(#clip0_4_294)">
<path d="M2.45 9.075V17.775C2.45 17.925 2.525 18 2.675 18H6.125C6.275 18 6.35 17.925 6.35 17.775V8.925H8.9C9.05 8.925 9.125 8.85 9.125 8.7L9.35 6C9.35 5.85 9.275 5.775 9.125 5.775H6.35V3.9C6.35 3.45 6.725 3.075 7.25 3.075H9.2C9.425 3.075 9.5 3 9.5 2.85V0.225C9.5 0.075 9.425 0 9.275 0H5.975C4.025 0 2.45 1.425 2.45 3.225V5.775H0.725C0.575 5.775 0.5 5.85 0.5 6V8.7C0.5 8.85 0.575 8.925 0.725 8.925H2.45V9.075Z" fill="#D08E37"/>
</g>
<defs>
<clipPath id="clip0_4_294">
<rect width="9" height="18" fill="white" transform="translate(0.5)"/>
</clipPath>
</defs>
</svg>
