<svg width="18" height="18" viewBox="0 0 18 18" fill="none" xmlns="http://www.w3.org/2000/svg">
<g clip-path="url(#clip0_4_307)">
<path d="M13.284 0.0764771L13.4235 0.080977C15.9165 0.157477 17.9145 2.20048 17.919 4.71598V13.2885L17.9145 13.428C17.838 15.921 15.795 17.919 13.2795 17.9235H4.71599L4.57649 17.919C2.08349 17.8425 0.0854937 15.7995 0.0809937 13.284V4.71598L0.0854937 4.57648C0.161994 2.08348 2.20499 0.085477 4.72049 0.080977L13.284 0.0764771ZM13.284 1.20598H4.71599L4.58549 1.21048C2.70899 1.27798 1.20599 2.82148 1.20599 4.71598V13.2885L1.21049 13.419C1.27799 15.2955 2.82149 16.7985 4.71599 16.7985H13.2885L13.419 16.794C15.2955 16.7265 16.7985 15.183 16.7985 13.2885V4.71598L16.794 4.58548C16.722 2.70898 15.1785 1.20598 13.284 1.20598ZM8.99999 3.93748L9.14849 3.94198C11.8755 4.01848 14.0625 6.25498 14.0625 8.99998C14.0625 11.799 11.7945 14.0625 8.99999 14.0625C6.20549 14.0625 3.93749 11.799 3.93749 8.99998C3.93749 6.25498 6.12449 4.01848 8.85149 3.93748H8.99999ZM8.99999 5.06248C6.82649 5.06248 5.06249 6.82648 5.06249 8.99998C5.06249 11.1735 6.82649 12.9375 8.99999 12.9375C11.1735 12.9375 12.9375 11.1735 12.9375 8.99998C12.9375 6.82648 11.1735 5.06248 8.99999 5.06248ZM13.9275 2.86648C14.3595 2.86648 14.706 3.21298 14.706 3.64498C14.706 4.07698 14.3595 4.42348 13.9275 4.42348C13.4955 4.42348 13.149 4.07698 13.149 3.64498C13.149 3.21298 13.5 2.86648 13.9275 2.86648Z" fill="#D08E37"/>
</g>
<defs>
<clipPath id="clip0_4_307">
<rect width="18" height="18" fill="white"/>
</clipPath>
</defs>
</svg>
