<svg width="38" height="27" viewBox="0 0 38 27" fill="none" xmlns="http://www.w3.org/2000/svg">
<path d="M6.65 13.11L10.165 12.54C11.8117 12.54 13.2683 13.11 14.535 14.25C15.865 15.3267 16.53 16.9417 16.53 19.095C16.53 21.185 15.8333 22.9583 14.44 24.415C13.0467 25.8717 11.0833 26.6 8.55 26.6C6.08 26.6 4.02167 25.65 2.375 23.75C0.791667 21.85 0 19.4117 0 16.435C0 13.395 1.14 10.3867 3.42 7.40999C5.76333 4.43333 9.08833 1.96333 13.395 0L14.06 1.615C8.10667 4.90833 5.13 8.23333 5.13 11.59C5.13 12.6033 5.63667 13.11 6.65 13.11ZM27.55 13.11L31.065 12.54C32.7117 12.54 34.1683 13.11 35.435 14.25C36.765 15.3267 37.43 16.9417 37.43 19.095C37.43 21.185 36.7333 22.9583 35.34 24.415C33.9467 25.8717 31.9833 26.6 29.45 26.6C26.98 26.6 24.9217 25.65 23.275 23.75C21.6917 21.85 20.9 19.4117 20.9 16.435C20.9 13.395 22.04 10.3867 24.32 7.40999C26.6633 4.43333 29.9883 1.96333 34.295 0L34.96 1.615C29.0067 4.90833 26.03 8.23333 26.03 11.59C26.03 12.6033 26.5367 13.11 27.55 13.11Z" fill="white"/>
</svg>
