<svg width="38" height="27" viewBox="0 0 38 27" fill="none" xmlns="http://www.w3.org/2000/svg">
<path d="M31.35 13.4899L27.835 14.0599C26.1883 14.0599 24.7317 13.4899 23.465 12.3499C22.135 11.2732 21.47 9.65825 21.47 7.50492C21.47 5.41492 22.1667 3.64159 23.56 2.18492C24.9533 0.728252 26.9167 -8.2016e-05 29.45 -8.2016e-05C31.92 -8.2016e-05 33.9783 0.949917 35.625 2.84992C37.2083 4.74992 38 7.18825 38 10.1649C38 13.2049 36.86 16.2133 34.58 19.1899C32.2367 22.1666 28.9117 24.6366 24.605 26.5999L23.94 24.9849C29.8933 21.6916 32.87 18.3666 32.87 15.0099C32.87 13.9966 32.3633 13.4899 31.35 13.4899ZM10.45 13.4899L6.935 14.0599C5.28833 14.0599 3.83167 13.4899 2.565 12.3499C1.235 11.2732 0.57 9.65825 0.57 7.50492C0.57 5.41492 1.26667 3.64159 2.66 2.18492C4.05333 0.728252 6.01667 -8.2016e-05 8.55 -8.2016e-05C11.02 -8.2016e-05 13.0783 0.949917 14.725 2.84992C16.3083 4.74992 17.1 7.18825 17.1 10.1649C17.1 13.2049 15.96 16.2133 13.68 19.1899C11.3367 22.1666 8.01167 24.6366 3.705 26.5999L3.04 24.9849C8.99334 21.6916 11.97 18.3666 11.97 15.0099C11.97 13.9966 11.4633 13.4899 10.45 13.4899Z" fill="white"/>
</svg>
