<svg width="24" height="18" viewBox="0 0 24 18" fill="none" xmlns="http://www.w3.org/2000/svg">
<g clip-path="url(#clip0_4_303)">
<path d="M20.809 4.48477C20.8201 4.67856 20.8201 4.87788 20.8201 5.07167C20.8699 12.1643 15.1615 17.9502 8.06893 18C8.00803 18 7.94712 18 7.89175 18C5.42236 18 3.0028 17.2913 0.926514 15.9569C1.2864 16.0012 1.64629 16.0234 2.01172 16.0234C4.06032 16.0289 6.04801 15.3424 7.65367 14.08C5.71027 14.0412 4.00495 12.7733 3.40698 10.924C3.68936 10.9794 3.97173 11.0071 4.25964 11.0071C4.66382 11.0071 5.06801 10.9517 5.45558 10.8465C3.335 10.4146 1.81239 8.55429 1.81239 6.39496V6.33405C2.44359 6.6884 3.14675 6.88219 3.87207 6.90434C1.87884 5.56444 1.26426 2.9068 2.47127 0.830514C4.77456 3.67087 8.17967 5.39834 11.8339 5.58105C11.2636 3.13381 12.7862 0.692095 15.2335 0.121809C15.5712 0.0387573 15.9145 0 16.2633 0C17.5202 0 18.7217 0.520455 19.5798 1.43402C20.5986 1.2347 21.5731 0.863734 22.4645 0.332205C22.1268 1.38419 21.4125 2.27561 20.4657 2.84589C21.3682 2.7407 22.2486 2.49708 23.0735 2.13165C22.4645 3.04522 21.6949 3.84251 20.809 4.48477Z" fill="#D08E37"/>
</g>
<defs>
<clipPath id="clip0_4_303">
<rect width="22.147" height="18" fill="white" transform="translate(0.926514)"/>
</clipPath>
</defs>
</svg>
