<svg version="1.1" xmlns="http://www.w3.org/2000/svg" xmlns:xlink="http://www.w3.org/1999/xlink" x="0px" y="0px"
	 viewBox="0 0 1000 1000" style="enable-background:new 0 0 1000 1000;" xml:space="preserve">
<path id="path7712" d="M973,612.3V639l-390.3-56.2v221.7l112.3,112.3c0,26.6-26.6,56.2-56.2,56.2c-112.3,0-277.9,0-277.9,0
	c-26.6,0-56.2-26.6-56.2-56.2l112.3-112.3V582.7L26.8,639v-26.6c0-26.6,17.8-35.5,26.6-41.4L414.1,361c0,0,0-17.8,0-112.3
	c3-56.2,29.6-221.7,85.7-221.7s82.7,165.6,82.7,221.7c0,91.6,0,112.3,0,112.3l360.7,209.9C961.2,579.8,973,582.7,973,612.3z"/>
</svg>
