<svg version="1.1" xmlns="http://www.w3.org/2000/svg" xmlns:xlink="http://www.w3.org/1999/xlink" x="0px" y="0px"
	 viewBox="0 0 1000 1000" style="enable-background:new 0 0 1000 1000;" xml:space="preserve">
<path d="M832.5,483.4l-54.2-162.5V206.5c0-6-3-12.1-6-15c0,0,0,0,0-3c0-3-3-3-3-6c-3-3-3-3-6-6c0,0-3,0-3-3c0,0-3,0-3-3
	c-3,0-3-3-6-3l3,3l-21.1-9l-93.3-39.1c-3,0-9,0-12.1-3c-3,3-3,3-6,3c-27.1,3-33.1,54.2-6,63.2l111.4,45.1v96.3H375.1v-54.2h69.2
	c18.1,0,33.1-15,33.1-33.1s-15-33.1-33.1-33.1H248.7c-3,0-6,0-9,0c-18.1,6-30.1,24-27.1,39.1c3,18.1,21.1,30.1,36.1,27.1H324v51.1
	l-54.2,159.4c-15-3-30.1-6-48.2-6C110.3,477.3,20,567.6,20,679s90.3,201.6,201.6,201.6S423.3,790.3,423.3,679c0-15-3-30.1-6-45.1
	h57.2c9,0,21.1-6,24-15L670,372.1h6h51.1l36.1,102.3c-105.3,9-186.5,93.3-186.5,201.6c0,111.4,90.3,201.6,201.6,201.6
	S980,787.4,980,676C980,582.7,916.8,507.5,832.5,483.4z M221.6,805.3c-69.2,0-126.5-57.1-126.5-126.4s57.2-126.4,126.5-126.4
	c69.2,0,126.4,57.2,126.4,126.4S290.8,805.3,221.6,805.3z M459.3,570.6H393c-15-24-36.1-45.1-60.1-63.2l42.2-132.4h222.7
	L459.3,570.6z M781.3,805.3c-69.2,0-126.4-57.1-126.4-126.4c0-9,0-18.1,3-24c12-60.1,60.1-102.3,123.3-102.3
	c69.2,0,126.4,57.2,126.4,126.4S850.5,805.3,781.3,805.3z"/>
</svg>
