<svg version="1.1" xmlns="http://www.w3.org/2000/svg" xmlns:xlink="http://www.w3.org/1999/xlink" x="0px" y="0px"
	 viewBox="0 0 1000 1000" style="enable-background:new 0 0 1000 1000;" xml:space="preserve">
<g>
	<path d="M965.3,681.4c3.8-21.5,5.7-45.9,6.7-65.6l-16,2.1c-3.4,0.3-247.2,19.9-455.8,19.9S47.6,618.3,45.2,618.2l-17.1-1.7
		c1,19.6,2.9,43.7,6.7,65c-4.6,3.6-7.6,9.3-7.6,15.6v78.8c0,32.6,26.6,59.1,59.1,59.1h78.8c32.6,0,59.1-26.6,59.1-59.1v-26.3
		c85.5,4,189.4,6.6,275.9,6.6s190.3-2.6,275.9-6.6v26.3c0,32.6,26.6,59.1,59.1,59.1H914c32.6,0,59.1-26.6,59.1-59.1v-78.7
		C972.9,690.7,969.9,685.1,965.3,681.4z"/>
	<path d="M745.1,539.4c-4.8,3.9-9.2,29.1-8.6,52.8c120.1-5.7,213.6-13.2,215.2-13.3l21.3-2.9c0-26.1-0.4-48.4-1.5-67.4l-53.7,10.7
		C911,520.3,778.7,539.4,745.1,539.4z"/>
	<path d="M243.8,500c14.9,0,28,5.7,38,16.4c20.9,22.6,21.8,62.1,21.4,77.6c63.5,2.6,131.9,4.5,196.9,4.5c65.1,0,133.6-1.9,197.1-4.5
		c-0.4-17.4,0.6-61.1,20.1-81.6c7.6-8,17.3-12.3,28-12.3c25.5,0,128.4-14.1,165.9-19.5l56.4-11.3c-4.7-27.6-13.2-42.8-28.3-47.2
		c-8.8-2.6-13.4-9-22.2-22l-6.8-9.9c-11.8-16.4-34.6-17.1-56.6-17.8c-6.4-0.2-16.3-0.5-21.5-1.5c-1-2.3-2.2-5.2-3.9-8.6h46.2
		c10.9,0,19.7-8.8,19.7-19.7s-8.8-19.7-19.7-19.7h-64.9c-25.5-52-64.1-124-82.4-135.3c-29.3-17.8-204.4-22.6-227-22.6
		s-197.8,4.7-227,22.6c-18.5,11.2-57,83.3-82.5,135.1h-64.9c-10.9,0-19.7,8.8-19.7,19.7s8.8,19.7,19.7,19.7h46.2
		c-1.5,3.5-2.9,6.4-3.9,8.7c-5.1,1.1-15.2,1.4-21.5,1.5c-22,0.7-44.7,1.3-56.5,17.8l-6.8,9.9c-8.8,13-13.3,19.5-22.2,22
		c-15.5,4.5-24,20.4-28.6,49.2l38.9,9.8C71.9,480.9,200.4,500,243.8,500z M638,559.1H362c-10.9,0-19.7-8.8-19.7-19.7
		s8.8-19.7,19.7-19.7H638c10.9,0,19.7,8.8,19.7,19.7C657.7,550.3,648.8,559.1,638,559.1z M293.1,221.5
		c16.6-7.9,139.4-17.1,206.9-17.1s190.3,9.2,205.6,16.1c11.2,9.8,47,75.7,70.3,122.5c0.1,2,0.5,4,1.1,5.8
		c-62-14.4-166.9-26.3-277-26.3s-215.1,11.9-277,26.2c0.7-1.8,1.1-3.9,1.1-5.9C247.3,296.3,282.7,230.6,293.1,221.5z"/>
	<path d="M263.7,592.3c0.4-14.2-1.5-39-10.8-49.1c-2.4-2.6-5-3.7-9-3.7c-46.5,0-174.9-19.1-180.3-19.9l-35.1-8.8
		c-1,18.6-1.4,40.6-1.4,65.9l21.7,2.2C50.1,579,143.5,586.5,263.7,592.3z"/>
</g>
</svg>
