<svg version="1.1" xmlns="http://www.w3.org/2000/svg" xmlns:xlink="http://www.w3.org/1999/xlink" x="0px" y="0px"
	 viewBox="0 0 1000 1000" style="enable-background:new 0 0 1000 1000;" xml:space="preserve">
<path id="path8421-9-1-0-1" d="M380.9,23.5c-26.8,0-47.7,20.8-47.7,47.7h-95.3c-26.8,0-47.7,20.8-47.7,47.7v288.9L95,452.3
	l95.3,190.6v95.3c71.5,0,119.1,47.7,166.8,47.7s71.5-47.7,142.9-47.7s95.3,47.7,142.9,47.7s95.3-47.7,166.8-47.7v-95.3L905,452.3
	l-95.3-44.6V118.8c0-26.8-20.8-47.7-47.7-47.7h-95.3c0-26.8-20.8-47.7-47.7-47.7L380.9,23.5L380.9,23.5z M285.6,166.5h428.9V363
	L500,261.7L285.6,363V166.5z M190.3,833.5c-32.7,0-62.5,17.9-95.3,29.8v95.3c0,0,47.7-29.8,95.3-29.8s95.3,47.7,166.8,47.7
	s95.3-44.6,142.9-47.7c47.7,0,71.5,47.7,142.9,47.7s119.1-47.7,166.8-47.7c32.7,0,95.3,29.8,95.3,29.8v-95.3
	c-29.8-11.9-62.5-29.8-95.3-29.8c-71.5,0-119.1,47.7-166.8,47.7s-71.5-47.7-142.9-47.7s-95.3,47.7-142.9,47.7
	S261.7,833.5,190.3,833.5z"/>
</svg>
