<svg version="1.1" xmlns="http://www.w3.org/2000/svg" xmlns:xlink="http://www.w3.org/1999/xlink" x="0px" y="0px"
	 viewBox="0 0 1000 1000" style="enable-background:new 0 0 1000 1000;" xml:space="preserve">
<g>
	<path d="M448.6,29.4C425,29.4,425,53,425,53v223.6c0,0,0,23.5-23.5,23.5c-23.5,0-23.5-23.5-23.5-23.5V53c0,0,0-23.5-23.5-23.5
		S330.9,53,330.9,53v223.6c0,0,0,23.5-23.5,23.5c-23.5,0-32.4-23.5-32.4-23.5V53c0.1,0,0.1-23.5-23.4-23.5
		c-26.4,0-26.4,23.5-26.4,23.5v297.1c0,23.5,23.5,50,50,73.5c26.4,23.5,23.5,50,23.5,73.5c0,0,0,50,0,73.5
		c0,23.5-23.5,326.4-23.5,326.4c0,23.5,26.4,73.5,73.5,73.5s76.4-50,73.5-73.5c0,0-23.5-297.1-23.5-320.6s0-73.5,0-73.5
		c0-23.5,0-50,23.5-73.5s50-50,50-73.5V53C472.1,53,472.1,29.4,448.6,29.4z"/>
	<path d="M772.1,29.5L772.1,29.5c-50-0.1-141.1,11.6-173.5,73.4c-23.5,50-23.5,173.5-23.5,223.6v247.1c0,23.5,23.5,50,50,50h50
		v297.1c0,23.5,23.5,50,50,50c26.4,0,50-23.5,50-50V29.5H772.1z"/>
</g>
</svg>
