<svg version="1.1"  xmlns="http://www.w3.org/2000/svg"
	 viewBox="0 0 1000 1000" style="enable-background:new 0 0 1000 1000;" xml:space="preserve">
<path id="path3088" d="M981,19h-60.2c-120.2,0-279.6,39-451,210.5C289.5,409.8,199.4,620.2,199.4,620.2
	c0,60.2,120.2,180.4,180.4,180.4c0,0,195.4-75.2,375.8-255.6C947.9,352.7,981,199.4,981,79.1V19z M650.3,259.5
	c51.1,0,90.2,39,90.2,90.2s-39,90.2-90.2,90.2c-51.2,0-90.2-39-90.2-90.2S599.2,259.5,650.3,259.5z M79.1,379.8L19,560.2h150.3
	l105.2-180.4L79.1,379.8L79.1,379.8z M620.2,725.5L439.8,830.7V981l180.4-60.2V725.5z"/>
</svg>
