<svg version="1.1" xmlns="http://www.w3.org/2000/svg" xmlns:xlink="http://www.w3.org/1999/xlink" x="0px" y="0px"
	 viewBox="0 0 1000 1000" style="enable-background:new 0 0 1000 1000;" xml:space="preserve">
<g>
	<path d="M309.1,269.6c69.6,0,127.2-57.6,127.2-127.2S378.8,15.2,309.1,15.2S181.8,72.8,181.8,142.4S239.4,269.6,309.1,269.6z"/>
	<path d="M718.2,269.6c69.6,0,127.2-57.6,127.2-127.2S787.9,15.2,718.2,15.2S590.9,72.8,590.9,142.4S648.5,269.6,718.2,269.6z"/>
	<path d="M845.5,321.3H587.9c-24.2,0-51.5,24.2-51.5,51.5l103,306.1v103v203.1H794V781.9v-103l103-306.1
		C897,348.6,872.8,321.3,845.5,321.3z"/>
	<path d="M436.4,424.3c0-51.5-51.5-103-103-103h-51.5c-51.5,0-103,51.5-103,103v103l-75.7,230.3c0,24.2,24.2,24.2,51.5,24.2h75.7
		v203.1h154.5V781.8h75.7c24.2,0,51.5,0,51.5-24.2l-75.7-230.3V424.3z"/>
</g>
</svg>
