<svg version="1.1" xmlns="http://www.w3.org/2000/svg" xmlns:xlink="http://www.w3.org/1999/xlink" x="0px" y="0px"
	 viewBox="0 0 1000 1000" style="enable-background:new 0 0 1000 1000;" xml:space="preserve">
<path id="path10847-43-3-9" d="M730.4,13.4c-103.1,154.7-194,254.7-306.2,357.8C315,468.2,118,434.9,118,574.3v51.6
	c0,51.6,51.6,100.1,51.6,154.7V832c0,75.8-24.2,75.8-51.6,154.7h51.6l103-154.7v151.6h51.6v-75.8V677.4h103.1v306.2h51.6V829.1
	v-75.8l51.6,75.8l51.6,154.7h51.6l-78.9-321.4c30.3-18.1,27.3-51.6,27.3-87.9c0-48.6,0-103.1,0-154.7l203.1-282l69.7,27.3
	c15.2,6.1,27.3,3,27.3-9.1c0-24.2-18.1-30.3-24.2-39.4L730.4,13.4z"/>
</svg>
